<svg width="64" height="70" viewBox="0 0 64 70" fill="none" xmlns="http://www.w3.org/2000/svg">
<path d="M28 21L37 25.5366V69H28V21Z" fill="black"/>
<path d="M10.683 11.1242C8.11907 13.5792 8.51518 19.5908 8.51518 19.5908H1.00003C1.00003 19.5908 0.965493 12.0433 3.16786 7.98329C4.31218 5.87376 5.94415 4.16644 7.93706 2.81269C11.0225 0.716832 14.911 0.736226 18.4872 1.39137C20.4883 1.75795 23.401 3.111 23.401 3.111L40.7436 11.7092C40.7436 11.7092 44.0772 13.3995 46.38 13.4288C48.2286 13.4523 49.3954 13.3281 51.0047 12.4257C52.4636 11.6075 53.152 10.8262 54.0396 9.41632C55.5826 6.96566 55.1958 2.10788 55.1958 2.10788H63L62.5664 7.97159C62.5664 7.97159 62.3675 10.86 61.6993 12.5572C61.2308 13.7472 60.5431 15.1367 59.965 15.7099L57.3636 18.2894C57.3636 18.2894 54.4747 19.8968 52.4499 20.4389C48.0246 21.6238 43.1331 20.7352 40.7436 19.5908C32.447 15.6174 23.1119 10.8493 19.4989 9.41632C15.8858 7.98329 13.3069 8.6118 10.683 11.1242Z" fill="black"/>
<path d="M28 21L28.2251 20.5535L27.5 20.188V21H28ZM37 25.5366H37.5V25.2287L37.2251 25.0901L37 25.5366ZM37 69V69.5H37.5V69H37ZM28 69H27.5V69.5H28V69ZM8.51518 19.5908V20.0908C8.6535 20.0908 8.78564 20.0335 8.88017 19.9326C8.97471 19.8316 9.02319 19.696 9.0141 19.5579L8.51518 19.5908ZM10.683 11.1242L10.3372 10.7631L10.683 11.1242ZM19.4989 9.41632L19.6832 8.95154L19.4989 9.41632ZM40.7436 19.5908L40.5276 20.0418L40.7436 19.5908ZM63 2.10788L63.4986 2.14475C63.5089 2.00612 63.461 1.86947 63.3664 1.76761C63.2718 1.66575 63.139 1.60788 63 1.60788V2.10788ZM55.1958 2.10788V1.60788C55.0563 1.60788 54.9231 1.66616 54.8285 1.76865C54.7338 1.87113 54.6863 2.0085 54.6974 2.14756L55.1958 2.10788ZM54.0396 9.41632L53.6165 9.14992L54.0396 9.41632ZM51.0047 12.4257L51.2492 12.8618V12.8618L51.0047 12.4257ZM46.38 13.4288L46.3863 12.9288L46.38 13.4288ZM40.7436 11.7092L40.9697 11.2632L40.9657 11.2612L40.7436 11.7092ZM23.401 3.111L23.6231 2.66289L23.6116 2.65754L23.401 3.111ZM18.4872 1.39137L18.3971 1.88318L18.4872 1.39137ZM7.93706 2.81269L7.65611 2.39909H7.65611L7.93706 2.81269ZM3.16786 7.98329L2.72836 7.74489H2.72836L3.16786 7.98329ZM1.00003 19.5908L0.500037 19.5931C0.501297 19.8684 0.724783 20.0908 1.00003 20.0908V19.5908ZM52.4499 20.4389L52.3205 19.956L52.4499 20.4389ZM57.3636 18.2894L57.6067 18.7263C57.6466 18.7041 57.6833 18.6766 57.7157 18.6444L57.3636 18.2894ZM59.965 15.7099L59.613 15.3549L59.6129 15.3549L59.965 15.7099ZM61.6993 12.5572L61.234 12.3741V12.3741L61.6993 12.5572ZM62.5664 7.97159L62.0678 7.93471L62.0676 7.93725L62.5664 7.97159ZM27.7749 21.4465L36.7749 25.9831L37.2251 25.0901L28.2251 20.5535L27.7749 21.4465ZM36.5 25.5366V69H37.5V25.5366H36.5ZM37 68.5H28V69.5H37V68.5ZM28.5 69V21H27.5V69H28.5ZM8.51518 19.5908C9.0141 19.5579 9.0141 19.558 9.01411 19.5581C9.01411 19.5581 9.01411 19.5581 9.01411 19.5581C9.01411 19.5581 9.0141 19.558 9.01408 19.5577C9.01406 19.5573 9.01401 19.5565 9.01394 19.5554C9.01379 19.5531 9.01356 19.5493 9.01326 19.5442C9.01267 19.534 9.01178 19.5183 9.01071 19.4973C9.00857 19.4552 9.00568 19.3922 9.00287 19.3105C8.99725 19.1471 8.99191 18.9093 8.99334 18.6156C8.9962 18.0273 9.02616 17.2194 9.13391 16.3389C9.35368 14.5429 9.88189 12.5835 11.0288 11.4854L10.3372 10.7631C8.92016 12.1199 8.36447 14.3938 8.14131 16.2174C8.02761 17.1466 7.99635 17.9951 7.99335 18.6107C7.99186 18.919 7.99744 19.17 8.00346 19.3449C8.00647 19.4324 8.0096 19.5009 8.01201 19.5482C8.01321 19.5718 8.01424 19.5901 8.01498 19.6028C8.01535 19.6091 8.01565 19.614 8.01587 19.6175C8.01598 19.6193 8.01607 19.6207 8.01613 19.6217C8.01617 19.6222 8.01619 19.6227 8.01621 19.623C8.01623 19.6231 8.01624 19.6233 8.01624 19.6234C8.01625 19.6236 8.01626 19.6237 8.51518 19.5908ZM11.0288 11.4854C12.2975 10.2706 13.517 9.5478 14.8204 9.28054C16.1227 9.01352 17.5692 9.18886 19.3145 9.8811L19.6832 8.95154C17.8155 8.21075 16.166 7.98384 14.6196 8.30092C13.0743 8.61777 11.6924 9.46546 10.3372 10.7631L11.0288 11.4854ZM19.3145 9.8811C22.9067 11.3059 32.2003 16.0536 40.5276 20.0418L40.9596 19.1399C32.6938 15.1812 23.3171 10.3928 19.6832 8.95154L19.3145 9.8811ZM63 1.60788H55.1958V2.60788H63V1.60788ZM55.1958 2.10788C54.6974 2.14756 54.6974 2.1475 54.6974 2.14745C54.6974 2.14745 54.6974 2.14742 54.6974 2.14744C54.6974 2.14747 54.6974 2.14758 54.6974 2.14775C54.6974 2.14811 54.6975 2.14876 54.6976 2.14969C54.6977 2.15157 54.6979 2.15459 54.6982 2.15874C54.6988 2.16704 54.6998 2.17983 54.7009 2.1969C54.7032 2.23105 54.7065 2.28228 54.7102 2.34883C54.7175 2.48198 54.7263 2.67623 54.7323 2.9175C54.7442 3.40061 54.7443 4.06929 54.6973 4.81155C54.6018 6.3219 54.3163 8.03851 53.6165 9.14992L54.4627 9.68272C55.306 8.34347 55.5985 6.40586 55.6953 4.87466C55.7446 4.09614 55.7444 3.39721 55.732 2.8929C55.7258 2.64046 55.7165 2.43605 55.7087 2.29396C55.7048 2.2229 55.7012 2.16738 55.6986 2.12916C55.6973 2.11006 55.6963 2.09528 55.6955 2.08504C55.6951 2.07992 55.6948 2.07594 55.6946 2.07313C55.6945 2.07172 55.6944 2.0706 55.6944 2.06978C55.6943 2.06937 55.6943 2.06903 55.6943 2.06876C55.6943 2.06863 55.6943 2.06849 55.6942 2.06842C55.6942 2.0683 55.6942 2.06819 55.1958 2.10788ZM53.6165 9.14992C52.7599 10.5105 52.1271 11.2229 50.7601 11.9896L51.2492 12.8618C52.8002 11.992 53.5441 11.1418 54.4627 9.68272L53.6165 9.14992ZM50.7601 11.9896C49.2581 12.8319 48.1906 12.9518 46.3863 12.9288L46.3736 13.9288C48.2666 13.9529 49.5328 13.8244 51.2492 12.8618L50.7601 11.9896ZM46.3863 12.9288C45.3282 12.9154 43.9886 12.5136 42.8759 12.0906C42.3276 11.8822 41.8492 11.6744 41.5079 11.5188C41.3375 11.4411 41.2017 11.3766 41.1091 11.3318C41.0628 11.3094 41.0273 11.2919 41.0037 11.2802C40.992 11.2744 40.9831 11.27 40.9774 11.2671C40.9746 11.2657 40.9725 11.2646 40.9712 11.264C40.9705 11.2636 40.9701 11.2634 40.9699 11.2633C40.9697 11.2632 40.9697 11.2632 40.9696 11.2632C40.9696 11.2632 40.9696 11.2632 40.9696 11.2632C40.9697 11.2632 40.9697 11.2632 40.7436 11.7092C40.5175 12.1551 40.5175 12.1552 40.5176 12.1552C40.5177 12.1552 40.5178 12.1553 40.5179 12.1553C40.518 12.1554 40.5183 12.1555 40.5186 12.1557C40.5191 12.1559 40.5199 12.1563 40.5209 12.1568C40.5228 12.1578 40.5255 12.1592 40.529 12.1609C40.5361 12.1645 40.5463 12.1696 40.5594 12.1761C40.5858 12.1892 40.6242 12.2081 40.6736 12.2319C40.7723 12.2797 40.9149 12.3475 41.093 12.4287C41.4488 12.5909 41.9476 12.8075 42.5206 13.0254C43.6504 13.4549 45.129 13.9129 46.3736 13.9288L46.3863 12.9288ZM40.9657 11.2612L23.623 2.66303L23.1789 3.55897L40.5215 12.1571L40.9657 11.2612ZM23.401 3.111C23.6116 2.65754 23.6116 2.65752 23.6115 2.65749C23.6115 2.65747 23.6114 2.65744 23.6113 2.65741C23.6112 2.65735 23.611 2.65726 23.6108 2.65716C23.6103 2.65695 23.6097 2.65666 23.6089 2.65629C23.6073 2.65555 23.605 2.65449 23.602 2.65311C23.5961 2.65036 23.5874 2.64635 23.576 2.64117C23.5534 2.63079 23.5203 2.61568 23.4776 2.59642C23.3922 2.5579 23.2686 2.50271 23.1143 2.43546C22.8057 2.30105 22.3733 2.11801 21.8772 1.92324C20.8936 1.53705 19.6278 1.09199 18.5773 0.89955L18.3971 1.88318C19.3477 2.05732 20.5388 2.47208 21.5118 2.85407C21.994 3.04338 22.4148 3.22152 22.7149 3.35225C22.8648 3.41758 22.9844 3.47097 23.0662 3.50787C23.1071 3.52632 23.1385 3.54064 23.1595 3.55026C23.17 3.55507 23.1779 3.55871 23.183 3.5611C23.1856 3.5623 23.1875 3.56318 23.1888 3.56374C23.1894 3.56402 23.1898 3.56422 23.1901 3.56434C23.1902 3.5644 23.1903 3.56444 23.1903 3.56446C23.1903 3.56447 23.1903 3.56447 23.1903 3.56448C23.1903 3.56447 23.1903 3.56446 23.401 3.111ZM7.65611 2.39909C5.60525 3.7922 3.9152 5.55696 2.72836 7.74489L3.60737 8.2217C4.70916 6.19056 6.28305 4.54067 8.21801 3.22629L7.65611 2.39909ZM2.72836 7.74489C1.57807 9.86544 1.02887 12.8502 0.761131 15.2542C0.626198 16.4658 0.56098 17.5482 0.529455 18.3279C0.513685 18.7179 0.506325 19.0328 0.502911 19.2508C0.501203 19.3598 0.500481 19.4446 0.500188 19.5025C0.500042 19.5315 0.500002 19.5538 0.5 19.569C0.499999 19.5766 0.500008 19.5824 0.500017 19.5865C0.500021 19.5885 0.500026 19.59 0.50003 19.5912C0.500032 19.5917 0.500033 19.5922 0.500035 19.5925C0.500035 19.5926 0.500036 19.5928 0.500036 19.5929C0.500037 19.593 0.500037 19.5931 1.00003 19.5908C1.50003 19.5885 1.50003 19.5886 1.50003 19.5886C1.50003 19.5886 1.50003 19.5885 1.50003 19.5885C1.50003 19.5883 1.50003 19.5881 1.50002 19.5877C1.50002 19.587 1.50002 19.5858 1.50001 19.5842C1.50001 19.581 1.5 19.5759 1.5 19.5691C1.5 19.5555 1.50004 19.5349 1.50018 19.5076C1.50045 19.453 1.50114 19.3717 1.50279 19.2664C1.50609 19.0558 1.51324 18.7493 1.52864 18.3683C1.55946 17.6059 1.62326 16.5477 1.75499 15.3649C2.02057 12.9802 2.55529 10.1612 3.60737 8.2217L2.72836 7.74489ZM1.00003 20.0908H8.51518V19.0908H1.00003V20.0908ZM18.5773 0.89955C14.961 0.237074 10.9072 0.190697 7.65611 2.39909L8.21801 3.22629C11.1377 1.24297 14.8609 1.23538 18.3971 1.88318L18.5773 0.89955ZM40.5276 20.0418C43.0171 21.234 48.0308 22.1398 52.5792 20.9219L52.3205 19.956C48.0185 21.1079 43.2491 20.2364 40.9596 19.1399L40.5276 20.0418ZM52.5792 20.9219C53.6392 20.6381 54.9026 20.0834 55.883 19.6114C56.3772 19.3734 56.807 19.1527 57.1134 18.9915C57.2667 18.9108 57.3894 18.8449 57.474 18.799C57.5163 18.776 57.5491 18.7581 57.5716 18.7457C57.5828 18.7396 57.5914 18.7348 57.5973 18.7315C57.6002 18.7299 57.6025 18.7287 57.6041 18.7278C57.6049 18.7273 57.6055 18.727 57.6059 18.7268C57.6061 18.7266 57.6063 18.7265 57.6064 18.7265C57.6065 18.7264 57.6066 18.7264 57.6066 18.7264C57.6067 18.7263 57.6067 18.7263 57.3636 18.2894C57.1205 17.8525 57.1205 17.8525 57.1205 17.8525C57.1205 17.8525 57.1205 17.8525 57.1205 17.8525C57.1205 17.8525 57.1204 17.8525 57.1202 17.8526C57.12 17.8528 57.1195 17.853 57.1189 17.8533C57.1177 17.854 57.1158 17.8551 57.1132 17.8565C57.1081 17.8594 57.1002 17.8637 57.0898 17.8694C57.0689 17.8809 57.0377 17.898 56.9971 17.9201C56.9158 17.9642 56.7969 18.028 56.6477 18.1065C56.3492 18.2636 55.9303 18.4787 55.4491 18.7104C54.4788 19.1775 53.2854 19.6976 52.3205 19.956L52.5792 20.9219ZM57.7157 18.6444L60.3171 16.065L59.6129 15.3549L57.0116 17.9344L57.7157 18.6444ZM60.3171 16.065C60.6621 15.7229 61.0072 15.1763 61.3144 14.6001C61.6279 14.0122 61.9247 13.3494 62.1645 12.7404L61.234 12.3741C61.0053 12.955 60.7241 13.5819 60.432 14.1296C60.1337 14.689 59.846 15.1238 59.613 15.3549L60.3171 16.065ZM62.1645 12.7404C62.5212 11.8345 62.7442 10.6395 62.8784 9.69855C62.9463 9.22252 62.9929 8.80091 63.0225 8.4981C63.0373 8.34658 63.0479 8.22449 63.0549 8.13984C63.0583 8.09751 63.0609 8.06453 63.0626 8.04188C63.0635 8.03055 63.0641 8.02181 63.0645 8.01578C63.0647 8.01276 63.0649 8.01042 63.065 8.00878C63.0651 8.00795 63.0651 8.0073 63.0652 8.00683C63.0652 8.00659 63.0652 8.0064 63.0652 8.00625C63.0652 8.00617 63.0652 8.00609 63.0652 8.00605C63.0652 8.00599 63.0652 8.00593 62.5664 7.97159C62.0676 7.93725 62.0676 7.93721 62.0676 7.93719C62.0676 7.93719 62.0676 7.93718 62.0676 7.93719C62.0676 7.93722 62.0676 7.93729 62.0676 7.9374C62.0676 7.93763 62.0675 7.93803 62.0675 7.9386C62.0674 7.93974 62.0673 7.94157 62.0671 7.94407C62.0667 7.94907 62.0662 7.95676 62.0654 7.967C62.0639 7.98749 62.0615 8.01822 62.0582 8.05818C62.0517 8.13813 62.0415 8.25496 62.0273 8.40074C61.9987 8.69255 61.9538 9.09912 61.8885 9.55735C61.7562 10.4849 61.5456 11.5827 61.234 12.3741L62.1645 12.7404ZM63.065 8.00846L63.4986 2.14475L62.5014 2.07101L62.0678 7.93472L63.065 8.00846Z" fill="black"/>
</svg>
